<svg xmlns="http://www.w3.org/2000/svg" xmlns:xlink="http://www.w3.org/1999/xlink" width="500" zoomAndPan="magnify" viewBox="0 0 375 374.999991" height="500" preserveAspectRatio="xMidYMid meet" version="1.0"><defs><g/><clipPath id="3ce508b989"><path d="M 62.433594 23.027344 L 302 23.027344 L 302 104 L 62.433594 104 Z M 62.433594 23.027344 " clip-rule="nonzero"/></clipPath><clipPath id="01aa844912"><path d="M 204 314 L 277.859375 314 L 277.859375 317 L 204 317 Z M 204 314 " clip-rule="nonzero"/></clipPath><clipPath id="9eb3ca8a1f"><path d="M 196 311.929688 L 204 311.929688 L 204 318.679688 L 196 318.679688 Z M 196 311.929688 " clip-rule="nonzero"/></clipPath><clipPath id="fb878c836d"><path d="M 159.890625 63.628906 L 215.390625 63.628906 L 215.390625 119 L 159.890625 119 Z M 159.890625 63.628906 " clip-rule="nonzero"/></clipPath></defs><g clip-path="url(#3ce508b989)"><path fill="#31302c" d="M 66.738281 103.441406 L 182.03125 28.851562 C 182.03125 28.851562 297.324219 103.441406 297.324219 103.441406 C 298.515625 104.214844 300.113281 103.871094 300.886719 102.679688 C 301.65625 101.484375 301.316406 99.890625 300.121094 99.117188 C 300.121094 99.117188 183.429688 23.625 183.429688 23.625 C 182.578125 23.074219 181.480469 23.074219 180.632812 23.625 C 180.632812 23.625 63.941406 99.117188 63.941406 99.117188 C 62.746094 99.890625 62.40625 101.484375 63.175781 102.679688 C 63.949219 103.871094 65.542969 104.214844 66.738281 103.441406 Z M 66.738281 103.441406 " fill-opacity="1" fill-rule="evenodd"/></g><path fill="#31302c" d="M 210.535156 44.105469 L 231.742188 30.382812 C 231.742188 30.382812 340.746094 101.894531 340.746094 101.894531 C 341.933594 102.671875 343.53125 102.339844 344.3125 101.152344 C 345.089844 99.964844 344.757812 98.367188 343.570312 97.585938 C 343.570312 97.585938 233.164062 25.15625 233.164062 25.15625 C 232.3125 24.597656 231.210938 24.59375 230.351562 25.148438 C 230.351562 25.148438 220.964844 31.222656 207.738281 39.78125 C 206.542969 40.550781 206.199219 42.148438 206.972656 43.34375 C 207.746094 44.535156 209.339844 44.875 210.535156 44.105469 Z M 210.535156 44.105469 " fill-opacity="1" fill-rule="evenodd"/><path fill="#31302c" d="M 129.363281 60.613281 L 129.363281 41.164062 C 129.363281 39.75 128.210938 38.601562 126.792969 38.601562 L 105.339844 38.601562 C 103.917969 38.601562 102.773438 39.75 102.773438 41.164062 L 102.773438 75.398438 C 102.773438 76.8125 103.917969 77.964844 105.339844 77.964844 C 106.757812 77.964844 107.910156 76.8125 107.910156 75.398438 L 107.910156 43.726562 C 107.910156 43.726562 124.226562 43.726562 124.226562 43.726562 L 124.226562 60.613281 C 124.226562 62.027344 125.378906 63.175781 126.792969 63.175781 C 128.210938 63.175781 129.363281 62.027344 129.363281 60.613281 Z M 129.363281 60.613281 " fill-opacity="1" fill-rule="evenodd"/><path fill="#000000" d="M 194.832031 316.03125 L 194.832031 315.582031 L 166.203125 315.289062 L 194.832031 314.992188 L 194.832031 314.542969 L 122.515625 315.289062 Z M 194.832031 316.03125 " fill-opacity="1" fill-rule="nonzero"/><g clip-path="url(#01aa844912)"><path fill="#000000" d="M 204.867188 314.542969 L 204.867188 314.992188 L 233.5 315.289062 L 204.867188 315.582031 L 204.867188 316.03125 L 277.1875 315.289062 Z M 204.867188 314.542969 " fill-opacity="1" fill-rule="nonzero"/></g><g clip-path="url(#9eb3ca8a1f)"><path fill="#000000" d="M 203.277344 314.988281 C 203.203125 314.886719 203.105469 314.800781 203 314.730469 C 202.929688 314.6875 202.859375 314.644531 202.785156 314.609375 C 202.710938 314.578125 202.632812 314.542969 202.554688 314.515625 C 202.566406 314.46875 202.574219 314.425781 202.574219 314.382812 C 202.574219 314.1875 202.453125 313.992188 202.207031 313.824219 C 201.929688 314.4375 201.097656 314.960938 199.972656 315.253906 L 202.335938 312.917969 L 199.882812 315.167969 C 200.191406 314.097656 200.734375 313.308594 201.378906 313.042969 C 201.203125 312.808594 201 312.695312 200.796875 312.695312 C 200.746094 312.695312 200.703125 312.699219 200.65625 312.710938 C 200.625 312.636719 200.589844 312.5625 200.554688 312.492188 C 200.488281 312.367188 200.410156 312.242188 200.304688 312.144531 C 200.222656 312.066406 200.128906 311.996094 200.019531 311.957031 C 199.910156 311.921875 199.785156 311.917969 199.675781 311.957031 C 199.625 311.976562 199.578125 312 199.535156 312.027344 C 199.425781 312.097656 199.335938 312.1875 199.261719 312.292969 C 199.214844 312.355469 199.171875 312.425781 199.136719 312.496094 C 199.101562 312.566406 199.066406 312.640625 199.035156 312.714844 C 198.988281 312.703125 198.945312 312.695312 198.894531 312.695312 C 198.691406 312.695312 198.488281 312.8125 198.3125 313.046875 C 198.960938 313.3125 199.503906 314.109375 199.816406 315.183594 L 197.347656 312.917969 L 199.710938 315.253906 C 198.59375 314.960938 197.765625 314.441406 197.488281 313.828125 C 197.242188 313.996094 197.121094 314.191406 197.121094 314.382812 C 197.121094 314.429688 197.125 314.472656 197.140625 314.519531 C 197.058594 314.546875 196.984375 314.578125 196.910156 314.613281 C 196.777344 314.675781 196.648438 314.753906 196.542969 314.851562 C 196.460938 314.929688 196.390625 315.019531 196.347656 315.125 C 196.308594 315.226562 196.304688 315.34375 196.347656 315.449219 C 196.367188 315.496094 196.390625 315.542969 196.421875 315.585938 C 196.496094 315.6875 196.589844 315.773438 196.699219 315.84375 C 196.765625 315.890625 196.839844 315.929688 196.914062 315.964844 C 196.984375 316 197.0625 316.03125 197.144531 316.058594 C 197.128906 316.105469 197.125 316.148438 197.125 316.195312 C 197.125 316.386719 197.246094 316.582031 197.492188 316.75 C 197.769531 316.136719 198.597656 315.617188 199.722656 315.324219 L 197.351562 317.667969 L 199.816406 315.40625 C 199.503906 316.480469 198.960938 317.269531 198.3125 317.535156 C 198.488281 317.769531 198.695312 317.882812 198.898438 317.882812 C 198.945312 317.882812 198.992188 317.878906 199.039062 317.867188 C 199.066406 317.941406 199.101562 318.015625 199.136719 318.085938 C 199.175781 318.15625 199.21875 318.226562 199.265625 318.289062 C 199.339844 318.390625 199.429688 318.484375 199.539062 318.554688 C 199.582031 318.582031 199.628906 318.605469 199.679688 318.625 C 199.789062 318.660156 199.914062 318.660156 200.023438 318.625 C 200.132812 318.585938 200.226562 318.515625 200.308594 318.4375 C 200.410156 318.335938 200.492188 318.210938 200.558594 318.089844 C 200.59375 318.019531 200.628906 317.945312 200.65625 317.867188 C 200.707031 317.882812 200.75 317.886719 200.796875 317.886719 C 201.003906 317.886719 201.207031 317.773438 201.382812 317.539062 C 200.738281 317.277344 200.199219 316.488281 199.886719 315.421875 L 202.335938 317.671875 L 199.957031 315.320312 C 201.089844 315.617188 201.925781 316.136719 202.203125 316.753906 C 202.449219 316.585938 202.570312 316.390625 202.570312 316.195312 C 202.570312 316.152344 202.5625 316.109375 202.550781 316.0625 C 202.632812 316.035156 202.707031 316.003906 202.78125 315.96875 C 202.914062 315.90625 203.042969 315.828125 203.148438 315.730469 C 203.230469 315.652344 203.300781 315.5625 203.34375 315.457031 C 203.382812 315.355469 203.382812 315.234375 203.34375 315.132812 C 203.324219 315.085938 203.296875 315.039062 203.269531 314.996094 Z M 203.277344 314.988281 " fill-opacity="1" fill-rule="nonzero"/></g><g fill="#31302c" fill-opacity="1"><g transform="translate(114.930793, 230.532595)"><g><path d="M 3.390625 -113.1875 L 33.953125 -113.1875 L 33.953125 -112.0625 C 30.710938 -112.0625 28.351562 -111.078125 26.875 -109.109375 C 25.40625 -107.148438 24.484375 -103.960938 24.109375 -99.546875 C 23.734375 -95.128906 23.546875 -89.1875 23.546875 -81.71875 L 23.546875 -1.125 L 37.921875 -1.125 C 39.734375 -1.125 42.085938 -1.179688 44.984375 -1.296875 C 47.890625 -1.410156 51.039062 -1.65625 54.4375 -2.03125 C 57.832031 -2.414062 61.207031 -3.003906 64.5625 -3.796875 C 67.925781 -4.585938 71.019531 -5.625 73.84375 -6.90625 C 76.675781 -8.1875 78.941406 -9.785156 80.640625 -11.703125 C 82.335938 -13.628906 83.1875 -15.953125 83.1875 -18.671875 L 84.328125 -18.671875 L 84.328125 0 L 3.390625 0 L 3.390625 -1.125 C 6.640625 -1.125 9 -2.101562 10.46875 -4.0625 C 11.9375 -6.03125 12.859375 -9.238281 13.234375 -13.6875 C 13.617188 -18.144531 13.8125 -24.070312 13.8125 -31.46875 L 13.8125 -81.71875 C 13.8125 -89.1875 13.617188 -95.128906 13.234375 -99.546875 C 12.859375 -103.960938 11.9375 -107.148438 10.46875 -109.109375 C 9 -111.078125 6.640625 -112.0625 3.390625 -112.0625 Z M 3.390625 -113.1875 "/></g></g></g><g fill="#31302c" fill-opacity="1"><g transform="translate(202.646535, 230.532595)"><g><path d="M 6.796875 -86.015625 C 6.796875 -91.304688 8.359375 -96.175781 11.484375 -100.625 C 14.617188 -105.070312 19.203125 -108.65625 25.234375 -111.375 C 31.273438 -114.09375 38.632812 -115.453125 47.3125 -115.453125 C 54.25 -115.453125 60.265625 -114.960938 65.359375 -113.984375 C 70.453125 -113.003906 75.191406 -111.757812 79.578125 -110.25 L 79.578125 -95.078125 L 78.4375 -95.078125 C 78.4375 -95.078125 78.132812 -95.71875 77.53125 -97 C 76.925781 -98.28125 75.90625 -99.863281 74.46875 -101.75 C 73.039062 -103.632812 71.140625 -105.519531 68.765625 -107.40625 C 66.390625 -109.300781 63.425781 -110.890625 59.875 -112.171875 C 56.332031 -113.453125 52.144531 -114.09375 47.3125 -114.09375 C 40.289062 -114.09375 34.347656 -112.847656 29.484375 -110.359375 C 24.617188 -107.867188 20.941406 -104.695312 18.453125 -100.84375 C 15.960938 -97 14.71875 -92.960938 14.71875 -88.734375 C 14.71875 -84.890625 15.71875 -81.609375 17.71875 -78.890625 C 19.71875 -76.171875 22.429688 -73.832031 25.859375 -71.875 C 29.296875 -69.914062 33.125 -68.179688 37.34375 -66.671875 C 41.570312 -65.160156 45.945312 -63.648438 50.46875 -62.140625 C 55 -60.628906 59.378906 -58.988281 63.609375 -57.21875 C 67.835938 -55.445312 71.664062 -53.316406 75.09375 -50.828125 C 78.53125 -48.335938 81.25 -45.335938 83.25 -41.828125 C 85.25 -38.316406 86.25 -34.070312 86.25 -29.09375 C 86.25 -25.164062 85.265625 -21.332031 83.296875 -17.59375 C 81.335938 -13.863281 78.507812 -10.507812 74.8125 -7.53125 C 71.113281 -4.550781 66.660156 -2.171875 61.453125 -0.390625 C 56.253906 1.378906 50.367188 2.265625 43.796875 2.265625 C 38.816406 2.265625 34.0625 1.546875 29.53125 0.109375 C 25.007812 -1.316406 20.863281 -3.101562 17.09375 -5.25 C 13.320312 -7.40625 10.039062 -9.503906 7.25 -11.546875 L 7.25 -26.71875 L 8.375 -26.71875 C 8.375 -26.71875 8.957031 -25.8125 10.125 -24 C 11.300781 -22.1875 13.039062 -19.941406 15.34375 -17.265625 C 17.644531 -14.585938 20.472656 -11.90625 23.828125 -9.21875 C 27.179688 -6.539062 31.066406 -4.296875 35.484375 -2.484375 C 39.898438 -0.679688 44.785156 0.21875 50.140625 0.21875 C 54.296875 0.21875 58.164062 -0.457031 61.75 -1.8125 C 65.332031 -3.164062 68.460938 -5.007812 71.140625 -7.34375 C 73.816406 -9.6875 75.910156 -12.328125 77.421875 -15.265625 C 78.929688 -18.210938 79.6875 -21.273438 79.6875 -24.453125 C 79.6875 -28.671875 78.664062 -32.304688 76.625 -35.359375 C 74.59375 -38.421875 71.835938 -41.046875 68.359375 -43.234375 C 64.890625 -45.421875 60.984375 -47.382812 56.640625 -49.125 C 52.304688 -50.863281 47.835938 -52.523438 43.234375 -54.109375 C 38.628906 -55.691406 34.15625 -57.382812 29.8125 -59.1875 C 25.476562 -61 21.578125 -63.09375 18.109375 -65.46875 C 14.640625 -67.851562 11.882812 -70.722656 9.84375 -74.078125 C 7.8125 -77.441406 6.796875 -81.421875 6.796875 -86.015625 Z M 6.796875 -86.015625 "/></g></g></g><g fill="#31302c" fill-opacity="1"><g transform="translate(96.801543, 280.943569)"><g><path d="M 1.28125 0 L 1.28125 -13.171875 L 3.6875 -13.171875 L 3.6875 -1.875 L 9.515625 -1.875 L 9.515625 0 Z M 1.28125 0 "/></g></g></g><g fill="#31302c" fill-opacity="1"><g transform="translate(115.685116, 280.943569)"><g><path d="M 6.359375 0.21875 C 5.390625 0.21875 4.515625 0.03125 3.734375 -0.34375 C 2.960938 -0.726562 2.347656 -1.304688 1.890625 -2.078125 C 1.429688 -2.859375 1.203125 -3.847656 1.203125 -5.046875 L 1.203125 -13.171875 L 3.609375 -13.171875 L 3.609375 -5.015625 C 3.609375 -3.992188 3.851562 -3.226562 4.34375 -2.71875 C 4.84375 -2.21875 5.535156 -1.96875 6.421875 -1.96875 C 7.285156 -1.96875 7.96875 -2.21875 8.46875 -2.71875 C 8.96875 -3.226562 9.21875 -3.992188 9.21875 -5.015625 L 9.21875 -13.171875 L 11.625 -13.171875 L 11.625 -5.046875 C 11.625 -3.847656 11.382812 -2.859375 10.90625 -2.078125 C 10.4375 -1.304688 9.800781 -0.726562 9 -0.34375 C 8.207031 0.03125 7.328125 0.21875 6.359375 0.21875 Z M 6.359375 0.21875 "/></g></g></g><g fill="#31302c" fill-opacity="1"><g transform="translate(137.013273, 280.943569)"><g><path d="M 7.25 0.21875 C 5.914062 0.21875 4.769531 -0.0625 3.8125 -0.625 C 2.863281 -1.195312 2.128906 -1.992188 1.609375 -3.015625 C 1.097656 -4.035156 0.84375 -5.21875 0.84375 -6.5625 C 0.84375 -7.90625 1.097656 -9.085938 1.609375 -10.109375 C 2.128906 -11.140625 2.863281 -11.941406 3.8125 -12.515625 C 4.769531 -13.097656 5.914062 -13.390625 7.25 -13.390625 C 8.820312 -13.390625 10.113281 -13 11.125 -12.21875 C 12.132812 -11.4375 12.765625 -10.335938 13.015625 -8.921875 L 10.359375 -8.921875 C 10.203125 -9.628906 9.851562 -10.1875 9.3125 -10.59375 C 8.78125 -11.007812 8.078125 -11.21875 7.203125 -11.21875 C 5.984375 -11.21875 5.03125 -10.800781 4.34375 -9.96875 C 3.65625 -9.144531 3.3125 -8.007812 3.3125 -6.5625 C 3.3125 -5.125 3.65625 -3.992188 4.34375 -3.171875 C 5.03125 -2.347656 5.984375 -1.9375 7.203125 -1.9375 C 8.078125 -1.9375 8.78125 -2.125 9.3125 -2.5 C 9.851562 -2.882812 10.203125 -3.414062 10.359375 -4.09375 L 13.015625 -4.09375 C 12.765625 -2.738281 12.132812 -1.679688 11.125 -0.921875 C 10.113281 -0.160156 8.820312 0.21875 7.25 0.21875 Z M 7.25 0.21875 "/></g></g></g><g fill="#31302c" fill-opacity="1"><g transform="translate(159.394473, 280.943569)"><g><path d="M 1.28125 0 L 1.28125 -13.171875 L 3.6875 -13.171875 L 3.6875 -7.84375 L 8.5625 -13.171875 L 11.53125 -13.171875 L 6.671875 -7.9375 L 11.65625 0 L 8.703125 0 L 4.953125 -6.09375 L 3.6875 -4.71875 L 3.6875 0 Z M 1.28125 0 "/></g></g></g><g fill="#31302c" fill-opacity="1"><g transform="translate(179.951642, 280.943569)"><g><path d="M 4.6875 0 L 4.6875 -4.6875 L 0.265625 -13.171875 L 2.984375 -13.171875 L 5.90625 -7.09375 L 8.796875 -13.171875 L 11.5 -13.171875 L 7.09375 -4.6875 L 7.09375 0 Z M 4.6875 0 "/></g></g></g><g fill="#31302c" fill-opacity="1"><g transform="translate(200.226744, 280.943569)"><g/></g></g><g fill="#31302c" fill-opacity="1"><g transform="translate(213.224536, 280.943569)"><g><path d="M 5.78125 0.21875 C 4.8125 0.21875 3.957031 0.0546875 3.21875 -0.265625 C 2.476562 -0.597656 1.894531 -1.078125 1.46875 -1.703125 C 1.039062 -2.328125 0.820312 -3.082031 0.8125 -3.96875 L 3.34375 -3.96875 C 3.375 -3.351562 3.597656 -2.832031 4.015625 -2.40625 C 4.429688 -1.988281 5.007812 -1.78125 5.75 -1.78125 C 6.394531 -1.78125 6.90625 -1.929688 7.28125 -2.234375 C 7.65625 -2.546875 7.84375 -2.960938 7.84375 -3.484375 C 7.84375 -4.023438 7.675781 -4.441406 7.34375 -4.734375 C 7.007812 -5.035156 6.566406 -5.28125 6.015625 -5.46875 C 5.460938 -5.65625 4.875 -5.859375 4.25 -6.078125 C 3.238281 -6.429688 2.460938 -6.882812 1.921875 -7.4375 C 1.390625 -7.988281 1.125 -8.71875 1.125 -9.625 C 1.113281 -10.40625 1.296875 -11.070312 1.671875 -11.625 C 2.054688 -12.1875 2.582031 -12.617188 3.25 -12.921875 C 3.914062 -13.234375 4.679688 -13.390625 5.546875 -13.390625 C 6.421875 -13.390625 7.191406 -13.234375 7.859375 -12.921875 C 8.535156 -12.609375 9.066406 -12.171875 9.453125 -11.609375 C 9.835938 -11.046875 10.039062 -10.375 10.0625 -9.59375 L 7.484375 -9.59375 C 7.472656 -10.0625 7.296875 -10.472656 6.953125 -10.828125 C 6.609375 -11.179688 6.128906 -11.359375 5.515625 -11.359375 C 4.984375 -11.367188 4.539062 -11.238281 4.1875 -10.96875 C 3.832031 -10.707031 3.65625 -10.316406 3.65625 -9.796875 C 3.65625 -9.359375 3.789062 -9.007812 4.0625 -8.75 C 4.34375 -8.5 4.71875 -8.285156 5.1875 -8.109375 C 5.664062 -7.929688 6.210938 -7.742188 6.828125 -7.546875 C 7.484375 -7.316406 8.078125 -7.050781 8.609375 -6.75 C 9.148438 -6.445312 9.582031 -6.046875 9.90625 -5.546875 C 10.238281 -5.054688 10.40625 -4.425781 10.40625 -3.65625 C 10.40625 -2.957031 10.226562 -2.3125 9.875 -1.71875 C 9.519531 -1.132812 9 -0.664062 8.3125 -0.3125 C 7.625 0.0390625 6.78125 0.21875 5.78125 0.21875 Z M 5.78125 0.21875 "/></g></g></g><g fill="#31302c" fill-opacity="1"><g transform="translate(232.973123, 280.943569)"><g><path d="M 1.28125 0 L 1.28125 -13.171875 L 3.6875 -13.171875 L 3.6875 0 Z M 1.28125 0 "/></g></g></g><g fill="#31302c" fill-opacity="1"><g transform="translate(246.459821, 280.943569)"><g><path d="M 1.28125 0 L 1.28125 -13.171875 L 6.5625 -13.171875 C 7.925781 -13.171875 8.96875 -12.851562 9.6875 -12.21875 C 10.414062 -11.582031 10.78125 -10.769531 10.78125 -9.78125 C 10.78125 -8.957031 10.554688 -8.296875 10.109375 -7.796875 C 9.660156 -7.296875 9.117188 -6.960938 8.484375 -6.796875 C 9.234375 -6.640625 9.851562 -6.265625 10.34375 -5.671875 C 10.832031 -5.078125 11.078125 -4.382812 11.078125 -3.59375 C 11.078125 -2.550781 10.703125 -1.691406 9.953125 -1.015625 C 9.203125 -0.335938 8.132812 0 6.75 0 Z M 3.6875 -7.640625 L 6.203125 -7.640625 C 6.878906 -7.640625 7.398438 -7.796875 7.765625 -8.109375 C 8.128906 -8.421875 8.3125 -8.863281 8.3125 -9.4375 C 8.3125 -9.988281 8.132812 -10.425781 7.78125 -10.75 C 7.425781 -11.070312 6.890625 -11.234375 6.171875 -11.234375 L 3.6875 -11.234375 Z M 3.6875 -1.953125 L 6.375 -1.953125 C 7.09375 -1.953125 7.648438 -2.117188 8.046875 -2.453125 C 8.441406 -2.785156 8.640625 -3.253906 8.640625 -3.859375 C 8.640625 -4.472656 8.429688 -4.953125 8.015625 -5.296875 C 7.597656 -5.648438 7.039062 -5.828125 6.34375 -5.828125 L 3.6875 -5.828125 Z M 3.6875 -1.953125 "/></g></g></g><g fill="#31302c" fill-opacity="1"><g transform="translate(266.847759, 280.943569)"><g><path d="M 1.28125 0 L 1.28125 -13.171875 L 3.6875 -13.171875 L 3.6875 0 Z M 1.28125 0 "/></g></g></g><g fill="#31302c" fill-opacity="1"><g transform="translate(280.334457, 280.943569)"><g><path d="M 4.6875 0 L 4.6875 -4.6875 L 0.265625 -13.171875 L 2.984375 -13.171875 L 5.90625 -7.09375 L 8.796875 -13.171875 L 11.5 -13.171875 L 7.09375 -4.6875 L 7.09375 0 Z M 4.6875 0 "/></g></g></g><g fill="#31302c" fill-opacity="1"><g transform="translate(300.609565, 280.943569)"><g><path d="M 0.4375 0 L 5.25 -13.171875 L 7.953125 -13.171875 L 12.78125 0 L 10.21875 0 L 9.15625 -3.046875 L 4.03125 -3.046875 L 2.953125 0 Z M 4.6875 -4.921875 L 8.5 -4.921875 L 6.578125 -10.40625 Z M 4.6875 -4.921875 "/></g></g></g><g fill="#e1bb16" fill-opacity="1"><g transform="translate(152.477836, 304.930322)"><g/></g></g><g fill="#e1bb16" fill-opacity="1"><g transform="translate(163.903617, 304.930322)"><g><path d="M 1.984375 -2.359375 C 1.984375 -1.984375 2.125 -1.679688 2.40625 -1.453125 C 2.6875 -1.234375 3.085938 -1.125 3.609375 -1.125 C 4.128906 -1.125 4.523438 -1.207031 4.796875 -1.375 C 5.066406 -1.539062 5.203125 -1.789062 5.203125 -2.125 C 5.203125 -2.3125 5.128906 -2.476562 4.984375 -2.625 C 4.847656 -2.769531 4.515625 -2.90625 3.984375 -3.03125 L 2.6875 -3.328125 C 1.863281 -3.523438 1.300781 -3.789062 1 -4.125 C 0.707031 -4.457031 0.5625 -4.921875 0.5625 -5.515625 C 0.5625 -6.203125 0.804688 -6.765625 1.296875 -7.203125 C 1.785156 -7.648438 2.523438 -7.875 3.515625 -7.875 C 4.492188 -7.875 5.234375 -7.625 5.734375 -7.125 C 6.242188 -6.632812 6.5 -6.054688 6.5 -5.390625 L 4.96875 -5.390625 C 4.925781 -5.765625 4.773438 -6.050781 4.515625 -6.25 C 4.265625 -6.445312 3.890625 -6.546875 3.390625 -6.546875 C 2.992188 -6.546875 2.671875 -6.460938 2.421875 -6.296875 C 2.179688 -6.128906 2.0625 -5.90625 2.0625 -5.625 C 2.0625 -5.4375 2.113281 -5.273438 2.21875 -5.140625 C 2.320312 -5.015625 2.492188 -4.921875 2.734375 -4.859375 L 4.796875 -4.359375 C 5.535156 -4.179688 6.046875 -3.921875 6.328125 -3.578125 C 6.609375 -3.234375 6.75 -2.8125 6.75 -2.3125 C 6.75 -1.46875 6.457031 -0.835938 5.875 -0.421875 C 5.300781 -0.00390625 4.582031 0.203125 3.71875 0.203125 C 2.613281 0.203125 1.789062 -0.03125 1.25 -0.5 C 0.707031 -0.96875 0.4375 -1.585938 0.4375 -2.359375 Z M 1.984375 -2.359375 "/></g></g></g><g fill="#e1bb16" fill-opacity="1"><g transform="translate(179.620784, 304.930322)"><g><path d="M 4.078125 0 L 2.46875 0 L 2.46875 -6.3125 L 0.15625 -6.3125 L 0.15625 -7.671875 L 6.390625 -7.671875 L 6.390625 -6.3125 L 4.078125 -6.3125 Z M 4.078125 0 "/></g></g></g><g fill="#e1bb16" fill-opacity="1"><g transform="translate(194.727386, 304.930322)"><g><path d="M 6.953125 -2.6875 C 6.953125 -1.738281 6.6875 -1.019531 6.15625 -0.53125 C 5.632812 -0.0390625 4.847656 0.203125 3.796875 0.203125 C 2.867188 0.203125 2.128906 -0.03125 1.578125 -0.5 C 1.023438 -0.96875 0.75 -1.664062 0.75 -2.59375 L 0.75 -7.671875 L 2.390625 -7.671875 L 2.390625 -2.6875 C 2.390625 -2.1875 2.515625 -1.804688 2.765625 -1.546875 C 3.015625 -1.285156 3.367188 -1.15625 3.828125 -1.15625 C 4.296875 -1.15625 4.660156 -1.273438 4.921875 -1.515625 C 5.179688 -1.765625 5.3125 -2.132812 5.3125 -2.625 L 5.3125 -7.671875 L 6.953125 -7.671875 Z M 6.953125 -2.6875 "/></g></g></g><g fill="#e1bb16" fill-opacity="1"><g transform="translate(210.982061, 304.930322)"><g><path d="M 2.359375 -1.328125 L 3.90625 -1.328125 C 4.457031 -1.328125 4.882812 -1.554688 5.1875 -2.015625 C 5.5 -2.472656 5.65625 -3.101562 5.65625 -3.90625 C 5.65625 -4.726562 5.515625 -5.335938 5.234375 -5.734375 C 4.953125 -6.140625 4.519531 -6.34375 3.9375 -6.34375 L 2.359375 -6.34375 Z M 0.78125 -7.671875 L 4.171875 -7.671875 C 5.203125 -7.671875 5.976562 -7.332031 6.5 -6.65625 C 7.03125 -5.988281 7.296875 -5.109375 7.296875 -4.015625 C 7.296875 -2.816406 7.015625 -1.847656 6.453125 -1.109375 C 5.898438 -0.367188 5.117188 0 4.109375 0 L 0.78125 0 Z M 0.78125 -7.671875 "/></g></g></g><g fill="#e1bb16" fill-opacity="1"><g transform="translate(227.294136, 304.930322)"><g><path d="M 2.390625 0 L 0.78125 0 L 0.78125 -7.671875 L 2.390625 -7.671875 Z M 2.390625 0 "/></g></g></g><g fill="#e1bb16" fill-opacity="1"><g transform="translate(239.013927, 304.930322)"><g><path d="M 2.046875 -3.828125 C 2.046875 -2.941406 2.242188 -2.273438 2.640625 -1.828125 C 3.035156 -1.378906 3.539062 -1.15625 4.15625 -1.15625 C 4.757812 -1.15625 5.253906 -1.382812 5.640625 -1.84375 C 6.023438 -2.3125 6.21875 -2.972656 6.21875 -3.828125 C 6.21875 -4.691406 6.023438 -5.351562 5.640625 -5.8125 C 5.265625 -6.28125 4.757812 -6.515625 4.125 -6.515625 C 3.5 -6.515625 2.992188 -6.285156 2.609375 -5.828125 C 2.234375 -5.367188 2.046875 -4.703125 2.046875 -3.828125 Z M 0.4375 -3.828125 C 0.4375 -5.148438 0.78125 -6.15625 1.46875 -6.84375 C 2.15625 -7.53125 3.039062 -7.875 4.125 -7.875 C 5.195312 -7.875 6.078125 -7.53125 6.765625 -6.84375 C 7.460938 -6.164062 7.8125 -5.160156 7.8125 -3.828125 C 7.8125 -2.535156 7.46875 -1.539062 6.78125 -0.84375 C 6.101562 -0.144531 5.222656 0.203125 4.140625 0.203125 C 3.097656 0.203125 2.21875 -0.125 1.5 -0.78125 C 0.789062 -1.445312 0.4375 -2.460938 0.4375 -3.828125 Z M 0.4375 -3.828125 "/></g></g></g><g fill="#31302c" fill-opacity="1"><g transform="translate(169.404654, 334.168982)"><g/></g></g><g fill="#31302c" fill-opacity="1"><g transform="translate(181.89684, 334.168982)"><g><path d="M 4.546875 -2.671875 C 4.546875 -3.097656 4.429688 -3.4375 4.203125 -3.6875 C 3.984375 -3.9375 3.703125 -4.0625 3.359375 -4.0625 C 2.984375 -4.0625 2.679688 -3.929688 2.453125 -3.671875 C 2.222656 -3.421875 2.109375 -3.070312 2.109375 -2.625 C 2.109375 -2.144531 2.234375 -1.765625 2.484375 -1.484375 C 2.734375 -1.210938 3.039062 -1.078125 3.40625 -1.078125 C 3.757812 -1.078125 4.035156 -1.21875 4.234375 -1.5 C 4.441406 -1.78125 4.546875 -2.171875 4.546875 -2.671875 Z M 4.40625 -6.1875 C 4.320312 -6.71875 4.003906 -6.984375 3.453125 -6.984375 C 2.597656 -6.984375 2.140625 -6.222656 2.078125 -4.703125 L 2.09375 -4.671875 C 2.425781 -5.128906 2.960938 -5.359375 3.703125 -5.359375 C 4.441406 -5.359375 5.039062 -5.109375 5.5 -4.609375 C 5.957031 -4.117188 6.1875 -3.519531 6.1875 -2.8125 C 6.1875 -1.925781 5.9375 -1.195312 5.4375 -0.625 C 4.945312 -0.0625 4.296875 0.21875 3.484375 0.21875 C 2.453125 0.21875 1.691406 -0.117188 1.203125 -0.796875 C 0.710938 -1.484375 0.46875 -2.535156 0.46875 -3.953125 C 0.46875 -5.453125 0.722656 -6.550781 1.234375 -7.25 C 1.753906 -7.945312 2.53125 -8.296875 3.5625 -8.296875 C 4.195312 -8.296875 4.738281 -8.128906 5.1875 -7.796875 C 5.644531 -7.472656 5.925781 -6.9375 6.03125 -6.1875 Z M 4.40625 -6.1875 "/></g></g></g><g fill="#31302c" fill-opacity="1"><g transform="translate(197.980738, 334.168982)"><g><path d="M 2.609375 -4.8125 L 2.859375 -4.8125 C 3.367188 -4.8125 3.726562 -4.894531 3.9375 -5.0625 C 4.144531 -5.238281 4.25 -5.523438 4.25 -5.921875 C 4.25 -6.222656 4.160156 -6.472656 3.984375 -6.671875 C 3.804688 -6.878906 3.550781 -6.984375 3.21875 -6.984375 C 2.851562 -6.984375 2.570312 -6.875 2.375 -6.65625 C 2.1875 -6.4375 2.09375 -6.09375 2.09375 -5.625 L 0.578125 -5.625 C 0.578125 -6.457031 0.8125 -7.109375 1.28125 -7.578125 C 1.75 -8.054688 2.425781 -8.296875 3.3125 -8.296875 C 4.0625 -8.296875 4.675781 -8.09375 5.15625 -7.6875 C 5.644531 -7.28125 5.890625 -6.710938 5.890625 -5.984375 C 5.890625 -5.273438 5.554688 -4.75 4.890625 -4.40625 L 4.890625 -4.390625 C 4.960938 -4.367188 5.066406 -4.320312 5.203125 -4.25 C 5.347656 -4.175781 5.488281 -4.066406 5.625 -3.921875 C 5.769531 -3.773438 5.890625 -3.582031 5.984375 -3.34375 C 6.085938 -3.101562 6.140625 -2.804688 6.140625 -2.453125 C 6.140625 -1.679688 5.875 -1.039062 5.34375 -0.53125 C 4.8125 -0.03125 4.132812 0.21875 3.3125 0.21875 C 2.425781 0.21875 1.722656 -0.00390625 1.203125 -0.453125 C 0.679688 -0.910156 0.421875 -1.609375 0.421875 -2.546875 L 2.015625 -2.546875 C 2.015625 -2.078125 2.117188 -1.710938 2.328125 -1.453125 C 2.535156 -1.203125 2.835938 -1.078125 3.234375 -1.078125 C 3.597656 -1.078125 3.894531 -1.203125 4.125 -1.453125 C 4.351562 -1.703125 4.46875 -2.035156 4.46875 -2.453125 C 4.46875 -2.878906 4.328125 -3.179688 4.046875 -3.359375 C 3.765625 -3.546875 3.347656 -3.640625 2.796875 -3.640625 L 2.609375 -3.640625 Z M 2.609375 -4.8125 "/></g></g></g><g fill="#31302c" fill-opacity="1"><g transform="translate(214.064635, 334.168982)"><g><path d="M 4.546875 -2.671875 C 4.546875 -3.097656 4.429688 -3.4375 4.203125 -3.6875 C 3.984375 -3.9375 3.703125 -4.0625 3.359375 -4.0625 C 2.984375 -4.0625 2.679688 -3.929688 2.453125 -3.671875 C 2.222656 -3.421875 2.109375 -3.070312 2.109375 -2.625 C 2.109375 -2.144531 2.234375 -1.765625 2.484375 -1.484375 C 2.734375 -1.210938 3.039062 -1.078125 3.40625 -1.078125 C 3.757812 -1.078125 4.035156 -1.21875 4.234375 -1.5 C 4.441406 -1.78125 4.546875 -2.171875 4.546875 -2.671875 Z M 4.40625 -6.1875 C 4.320312 -6.71875 4.003906 -6.984375 3.453125 -6.984375 C 2.597656 -6.984375 2.140625 -6.222656 2.078125 -4.703125 L 2.09375 -4.671875 C 2.425781 -5.128906 2.960938 -5.359375 3.703125 -5.359375 C 4.441406 -5.359375 5.039062 -5.109375 5.5 -4.609375 C 5.957031 -4.117188 6.1875 -3.519531 6.1875 -2.8125 C 6.1875 -1.925781 5.9375 -1.195312 5.4375 -0.625 C 4.945312 -0.0625 4.296875 0.21875 3.484375 0.21875 C 2.453125 0.21875 1.691406 -0.117188 1.203125 -0.796875 C 0.710938 -1.484375 0.46875 -2.535156 0.46875 -3.953125 C 0.46875 -5.453125 0.722656 -6.550781 1.234375 -7.25 C 1.753906 -7.945312 2.53125 -8.296875 3.5625 -8.296875 C 4.195312 -8.296875 4.738281 -8.128906 5.1875 -7.796875 C 5.644531 -7.472656 5.925781 -6.9375 6.03125 -6.1875 Z M 4.40625 -6.1875 "/></g></g></g><g fill="#31302c" fill-opacity="1"><g transform="translate(167.810904, 253.766952)"><g/></g></g><g fill="#31302c" fill-opacity="1"><g transform="translate(180.30309, 253.766952)"><g><path d="M 4.453125 0 L 2.703125 0 L 2.703125 -6.90625 L 0.171875 -6.90625 L 0.171875 -8.390625 L 7 -8.390625 L 7 -6.90625 L 4.453125 -6.90625 Z M 4.453125 0 "/></g></g></g><g fill="#31302c" fill-opacity="1"><g transform="translate(196.820559, 253.766952)"><g><path d="M 7.640625 -8.390625 L 7.640625 0 L 5.890625 0 L 5.890625 -3.765625 L 2.609375 -3.765625 L 2.609375 0 L 0.859375 0 L 0.859375 -8.390625 L 2.609375 -8.390625 L 2.609375 -5.203125 L 5.890625 -5.203125 L 5.890625 -8.390625 Z M 7.640625 -8.390625 "/></g></g></g><g fill="#31302c" fill-opacity="1"><g transform="translate(214.661559, 253.766952)"><g><path d="M 7.03125 -6.90625 L 2.578125 -6.90625 L 2.578125 -5.140625 L 6.671875 -5.140625 L 6.671875 -3.65625 L 2.578125 -3.65625 L 2.578125 -1.484375 L 7.21875 -1.484375 L 7.21875 0 L 0.859375 0 L 0.859375 -8.390625 L 7.03125 -8.390625 Z M 7.03125 -6.90625 "/></g></g></g><g clip-path="url(#fb878c836d)"><path fill="#e1bb16" d="M 188.171875 78.402344 C 188.257812 79.175781 188.40625 79.933594 188.621094 80.679688 C 188.832031 81.425781 189.105469 82.152344 189.441406 82.851562 C 189.777344 83.550781 190.171875 84.21875 190.617188 84.851562 C 191.066406 85.484375 191.566406 86.074219 192.117188 86.625 C 192.664062 87.171875 193.253906 87.671875 193.890625 88.121094 C 194.523438 88.570312 195.1875 88.960938 195.890625 89.296875 C 196.589844 89.632812 197.3125 89.90625 198.058594 90.121094 C 198.804688 90.332031 199.566406 90.480469 200.335938 90.566406 C 204.070312 90.976562 208.890625 91.238281 215.109375 91.238281 C 208.890625 91.238281 204.070312 91.503906 200.335938 91.914062 C 199.566406 91.996094 198.804688 92.144531 198.058594 92.359375 C 197.3125 92.570312 196.589844 92.847656 195.890625 93.183594 C 195.1875 93.519531 194.523438 93.910156 193.890625 94.359375 C 193.253906 94.808594 192.664062 95.304688 192.117188 95.855469 C 191.566406 96.402344 191.066406 96.996094 190.617188 97.628906 C 190.171875 98.261719 189.777344 98.929688 189.441406 99.628906 C 189.105469 100.328125 188.832031 101.050781 188.621094 101.796875 C 188.40625 102.546875 188.257812 103.304688 188.171875 104.074219 C 187.765625 107.808594 187.5 112.628906 187.5 118.851562 C 187.5 112.628906 187.234375 107.808594 186.828125 104.074219 C 186.742188 103.304688 186.59375 102.546875 186.382812 101.796875 C 186.167969 101.050781 185.894531 100.328125 185.558594 99.628906 C 185.222656 98.929688 184.832031 98.261719 184.382812 97.628906 C 183.933594 96.996094 183.433594 96.402344 182.886719 95.855469 C 182.335938 95.304688 181.746094 94.808594 181.113281 94.359375 C 180.476562 93.910156 179.8125 93.519531 179.109375 93.183594 C 178.410156 92.847656 177.6875 92.570312 176.941406 92.359375 C 176.195312 92.144531 175.4375 91.996094 174.664062 91.914062 C 170.929688 91.503906 166.109375 91.238281 159.890625 91.238281 C 166.109375 91.238281 170.929688 90.976562 174.664062 90.566406 C 175.4375 90.480469 176.195312 90.332031 176.941406 90.121094 C 177.6875 89.90625 178.410156 89.632812 179.109375 89.296875 C 179.8125 88.960938 180.476562 88.570312 181.113281 88.121094 C 181.746094 87.671875 182.335938 87.171875 182.886719 86.625 C 183.433594 86.074219 183.933594 85.484375 184.382812 84.851562 C 184.832031 84.21875 185.222656 83.550781 185.558594 82.851562 C 185.894531 82.152344 186.167969 81.425781 186.382812 80.679688 C 186.59375 79.933594 186.742188 79.175781 186.828125 78.402344 C 187.234375 74.671875 187.5 69.851562 187.5 63.628906 C 187.5 69.851562 187.765625 74.671875 188.171875 78.402344 Z M 188.171875 78.402344 " fill-opacity="1" fill-rule="nonzero"/></g></svg>